<?xml version="1.0" encoding="utf-8"?>
<!-- Generator: Adobe Illustrator 25.0.0, SVG Export Plug-In . SVG Version: 6.00 Build 0)  -->
<svg version="1.1" id="Layer_1" xmlns="http://www.w3.org/2000/svg" xmlns:xlink="http://www.w3.org/1999/xlink" x="0px" y="0px"
	 viewBox="60 60 135 135" style="enable-background:new 0 0 256 256;" xml:space="preserve">
<style type="text/css">
	.st0{fill:#CFD1D4;}
</style>
<path id="Icon_material-call" class="st0" d="M90.6,119.6c10.1,19.7,26.1,35.7,45.8,45.8l15.3-15.3c1.9-1.9,4.6-2.5,7.1-1.7
	c8,2.6,16.4,4,24.8,4c3.8,0,6.9,3.1,6.9,6.9v24.2c0,3.8-3.1,6.9-6.9,6.9c-65.2,0-118-52.8-118.1-118c0,0,0,0,0,0
	c0-3.8,3.1-6.9,6.9-6.9h24.3c3.8,0,6.9,3.1,6.9,6.9c0,8.4,1.3,16.8,4,24.8c0.8,2.5,0.1,5.2-1.7,7.1L90.6,119.6z"/>
</svg>
