<?xml version="1.0" encoding="utf-8"?>
<!-- Generator: Adobe Illustrator 25.0.0, SVG Export Plug-In . SVG Version: 6.00 Build 0)  -->
<svg version="1.1" id="Layer_1" xmlns="http://www.w3.org/2000/svg" xmlns:xlink="http://www.w3.org/1999/xlink" x="0px" y="0px"
	 viewBox="60 80 135 95" style="enable-background:new 0 0 256 256;" xml:space="preserve">
<style type="text/css">
	.st0{fill:#CFD1D4;}
</style>
<g id="Group_718" transform="translate(-1012 -3518.865)">
	<path id="Path_4911" class="st0" d="M1201.5,3614.2l-32.3,32.9c-0.2,0.2-0.2,0.6,0,0.8c0,0,0,0,0,0l22.6,24.1c1.5,1.5,1.5,4,0,5.5
		c0,0,0,0,0,0c-1.5,1.5-4,1.5-5.5,0l-22.6-24c-0.2-0.2-0.6-0.2-0.9,0c0,0,0,0,0,0l-5.5,5.6c-4.5,4.6-10.8,7.3-17.2,7.3
		c-6.6,0-13-2.7-17.6-7.5l-5.3-5.4c-0.2-0.2-0.6-0.2-0.9,0c0,0,0,0,0,0l-22.6,24c-1.5,1.5-4,1.5-5.5,0c-1.5-1.5-1.5-4,0-5.5
		c0,0,0,0,0,0l22.6-24.1c0.2-0.2,0.2-0.6,0-0.8l-32.3-32.9c-0.2-0.2-0.6-0.2-0.8,0c-0.1,0.1-0.2,0.3-0.2,0.4v65.9
		c0,5.3,4.3,9.6,9.6,9.6h105.8c5.3,0,9.6-4.3,9.6-9.6v-65.9c0-0.3-0.3-0.6-0.6-0.6C1201.7,3614,1201.6,3614.1,1201.5,3614.2z"/>
	<path id="Path_4912" class="st0" d="M1140,3658.6c4.4,0,8.7-1.8,11.8-4.9l47.2-48c-1.7-1.4-3.8-2.1-5.9-2.1h-105.9
		c-2.2,0-4.3,0.7-5.9,2.1l47.2,48C1131.4,3656.8,1135.6,3658.6,1140,3658.6z"/>
</g>
</svg>
