<?xml version="1.0" encoding="utf-8"?>
<!-- Generator: Adobe Illustrator 25.0.0, SVG Export Plug-In . SVG Version: 6.00 Build 0)  -->
<svg version="1.1" id="Layer_1" xmlns="http://www.w3.org/2000/svg" xmlns:xlink="http://www.w3.org/1999/xlink" x="0px" y="0px"
	 viewBox="60 60 135 135" style="enable-background:new 0 0 256 256;" xml:space="preserve">
<style type="text/css">
	.st0{fill:#CFD1D4;}
</style>
<path id="Icon_simple-instagram" class="st0" d="M128,65.5c-17.2,0-19.3,0.1-26.1,0.4C96.6,66,91.4,67,86.5,68.8
	c-4.2,1.6-8.1,4-11.2,7.2c-3.2,3.1-5.7,6.9-7.3,11.1c-1.8,4.9-2.8,10-2.9,15.2c-0.3,6.7-0.4,8.8-0.4,25.8s0.1,19.1,0.4,25.8
	c0.1,5.2,1.1,10.3,2.9,15.2c1.6,4.2,4.1,8,7.3,11.1c3.2,3.2,7,5.6,11.2,7.2c4.9,1.8,10.1,2.8,15.4,2.9c6.8,0.3,8.9,0.4,26.1,0.4
	s19.4-0.1,26.1-0.4c5.3-0.1,10.4-1.1,15.4-2.9c4.2-1.6,8-4,11.2-7.2c3.2-3.1,5.7-6.9,7.3-11.1c1.8-4.9,2.8-10,2.9-15.2
	c0.3-6.7,0.4-8.8,0.4-25.8s-0.1-19.1-0.4-25.8c-0.1-5.2-1.1-10.3-2.9-15.2c-3.3-8.4-10.1-15.1-18.5-18.3c-4.9-1.8-10.1-2.8-15.4-2.9
	C147.4,65.6,145.2,65.5,128,65.5z M128,76.7c16.9,0,18.9,0.1,25.6,0.4c4,0,8,0.8,11.8,2.2c2.7,1,5.2,2.6,7.3,4.7
	c2.1,2,3.7,4.5,4.7,7.2c1.4,3.7,2.1,7.6,2.2,11.6c0.3,6.6,0.4,8.6,0.4,25.3s-0.1,18.7-0.4,25.3c-0.1,4-0.8,7.9-2.2,11.6
	c-2.2,5.5-6.5,9.8-12,11.9c-3.8,1.4-7.8,2.1-11.8,2.2c-6.7,0.3-8.7,0.4-25.7,0.4s-18.9-0.1-25.7-0.4c-4-0.1-8-0.8-11.8-2.2
	c-2.7-1-5.2-2.6-7.3-4.7c-2.1-2-3.7-4.5-4.8-7.2c-1.4-3.7-2.1-7.7-2.2-11.7c-0.2-6.6-0.3-8.6-0.3-25.3s0.1-18.7,0.3-25.3
	c0.1-4,0.8-7.9,2.2-11.7c1-2.7,2.6-5.2,4.8-7.2c2-2.1,4.5-3.6,7.3-4.6c3.8-1.4,7.7-2.1,11.7-2.2c6.7-0.2,8.7-0.3,25.7-0.3
	C127.8,76.6,128,76.7,128,76.7z M128,95.9c-17.7,0.2-31.9,14.8-31.6,32.5c0.2,17.7,14.8,31.9,32.5,31.6
	c17.5-0.2,31.6-14.5,31.6-32.1C160.4,110.2,145.8,95.8,128,95.9L128,95.9z M128,148.8c-11.5-0.2-20.7-9.6-20.5-21.1
	c0.2-11.5,9.6-20.7,21.1-20.5c11.4,0.2,20.5,9.4,20.5,20.8C149,139.6,139.6,148.9,128,148.8C128,148.8,128,148.8,128,148.8z
	 M169.4,94.6c0.1,4.2-3.3,7.7-7.5,7.7c-4.2,0.1-7.7-3.3-7.7-7.5c-0.1-4.2,3.3-7.7,7.5-7.7c0,0,0.1,0,0.1,0
	C166,87.1,169.4,90.5,169.4,94.6L169.4,94.6z"/>
</svg>
