<?xml version="1.0" encoding="utf-8"?>
<!-- Generator: Adobe Illustrator 25.0.0, SVG Export Plug-In . SVG Version: 6.00 Build 0)  -->
<svg version="1.1" id="Layer_1" xmlns="http://www.w3.org/2000/svg" xmlns:xlink="http://www.w3.org/1999/xlink" x="0px" y="0px"
	 viewBox="60 60 135 135" style="enable-background:new 0 0 256 256;" xml:space="preserve">
<style type="text/css">
	.st0{fill:#CFD1D4;}
</style>
<path id="Icon_awesome-linkedin" class="st0" d="M182.3,65.5H73.7c-5,0-9,4-9,9v107c0,5,4,9,9,9h108.7c5,0,9-4,9.1-9v-107
	C191.3,69.5,187.3,65.5,182.3,65.5z M102.9,172.6H84.1V113H103L102.9,172.6L102.9,172.6z M93.5,104.8c-5.9-0.1-10.7-5-10.6-10.9
	c0.1-5.9,5-10.7,10.9-10.6c5.9,0.1,10.6,4.9,10.6,10.7C104.4,100.1,99.5,104.9,93.5,104.8z M173.3,172.6h-18.8v-29
	c0-6.9-0.1-15.8-9.8-15.8c-9.8,0-11.3,7.5-11.3,15.3v29.5h-18.8V113h18v8.1h0.3c3.7-6.2,10.6-9.9,17.8-9.6c19,0,22.5,12.4,22.5,28.4
	L173.3,172.6z"/>
</svg>
