<?xml version="1.0" encoding="utf-8"?>
<!-- Generator: Adobe Illustrator 25.0.0, SVG Export Plug-In . SVG Version: 6.00 Build 0)  -->
<svg version="1.1" id="Layer_1" xmlns="http://www.w3.org/2000/svg" xmlns:xlink="http://www.w3.org/1999/xlink" x="0px" y="0px"
	 viewBox="65 75 130 110" style="enable-background:new 0 0 256 256;" xml:space="preserve">
<style type="text/css">
	.st0{fill:#CFD1D4;}
</style>
<path id="Icon_awesome-twitter" class="st0" d="M177.7,102.9c0.1,1.1,0.1,2.2,0.1,3.3c0,39.7-32.2,71.8-71.8,71.8
	c-0.4,0-0.7,0-1.1,0c-13.9,0-27.6-3.9-39.3-11.3c2.1,0.2,4.1,0.3,6.2,0.3c11.5,0,22.7-3.8,31.8-10.8c-10.9-0.1-20.5-7.1-24-17.5
	c1.6,0.2,3.2,0.4,4.8,0.4c2.3,0,4.5-0.3,6.7-0.9c-11.9-2.3-20.5-12.7-20.5-24.8v-0.3c3.6,2,7.5,3,11.6,3.2
	c-7.1-4.6-11.4-12.5-11.4-21c0-4.5,1.2-8.9,3.5-12.7c13.1,15.8,32.3,25.4,52.8,26.4c-0.4-1.9-0.6-3.8-0.6-5.8
	c0.1-14,11.6-25.3,25.6-25.2c0,0,0,0,0,0c7.1,0,13.8,2.9,18.7,8c5.7-1.1,11.2-3.2,16.3-6.1c-1.9,5.9-5.9,10.8-11.3,13.9
	c5.1-0.6,10.1-1.9,14.8-3.9C187,94.9,182.6,99.3,177.7,102.9z"/>
</svg>
