<?xml version="1.0" encoding="utf-8"?>
<!-- Generator: Adobe Illustrator 25.0.0, SVG Export Plug-In . SVG Version: 6.00 Build 0)  -->
<svg version="1.1" id="Layer_1" xmlns="http://www.w3.org/2000/svg" xmlns:xlink="http://www.w3.org/1999/xlink" x="0px" y="0px"
	 viewBox="60 80 135 95" style="enable-background:new 0 0 256 256;" xml:space="preserve">
<style type="text/css">
	.st0{fill:#CFD1D4;}
</style>
<path id="Icon_awesome-youtube" class="st0" d="M187.9,98.3c-1.5-5.4-5.7-9.5-11.1-11c-9.7-2.6-48.8-2.6-48.8-2.6s-39.1,0-48.8,2.6
	c-5.4,1.4-9.6,5.6-11,11c-1.8,9.8-2.7,19.8-2.6,29.8c-0.1,10,0.8,20,2.6,29.8c1.5,5.3,5.7,9.4,11.1,10.8c9.7,2.6,48.8,2.6,48.8,2.6
	s39.1,0,48.8-2.6c5.3-1.3,9.6-5.5,11.1-10.8c1.8-9.8,2.7-19.8,2.6-29.8C190.6,118.1,189.7,108.1,187.9,98.3L187.9,98.3z
	 M115.2,146.4v-36.6l32.7,18.3L115.2,146.4z"/>
</svg>
